<svg viewBox="0 0 3663 1140" xmlns="http://www.w3.org/2000/svg">
  <defs>
    <radialGradient id="sheen" cx="38%" cy="30%" r="58%">
      <stop offset="0%" stop-color="#ffffff" stop-opacity="0.55"/>
      <stop offset="42%" stop-color="#ffffff" stop-opacity="0.07"/>
      <stop offset="100%" stop-color="#ffffff" stop-opacity="0"/>
    </radialGradient>
    <filter id="bs" x="-50%" y="-50%" width="200%" height="200%">
      <feDropShadow dx="0" dy="8" stdDeviation="12" flood-color="#000000" flood-opacity="0.35"/>
    </filter>
  </defs>
  <rect x="0" y="0" width="3663" height="1140" rx="90" fill="#15171C"/>
  <g transform="translate(160,840.0) scale(1,-1)">
    <path transform="translate(0,0)" d="M379 369V247H173V369ZM317 247 322 341Q410 341 468.0 322.0Q526 303 555.5 267.0Q585 231 585 178Q585 80 511.0 32.0Q437 -16 300 -16Q277 -16 245.0 -14.0Q213 -12 180.0 -6.5Q147 -1 120 9Q65 30 65 82V549Q65 570 77.0 581.5Q89 593 108 600Q142 612 193.5 617.5Q245 623 298 623Q425 623 494.5 579.5Q564 536 564 447Q564 397 533.5 363.5Q503 330 447.0 313.5Q391 297 314 297L308 369Q351 369 370.5 385.0Q390 401 390 432Q390 459 367.5 475.0Q345 491 300 491Q285 491 265.5 490.0Q246 489 235 487V125Q249 121 271.5 119.5Q294 118 313 118Q353 118 379.5 134.5Q406 151 406 186Q406 219 383.5 233.0Q361 247 317 247Z" fill="#D56868"/>
<path transform="translate(689,0)" d="M65 442H240V6L158 -3Q115 -3 90.0 22.0Q65 47 65 90ZM158 -3V138H469Q476 127 482.0 109.0Q488 91 488 70Q488 33 472.0 15.0Q456 -3 428 -3ZM240 211H65V608Q77 610 100.5 613.5Q124 617 146 617Q196 617 218.0 600.0Q240 583 240 534Z" fill="#F3D34E"/>
<path transform="translate(2045,0)" d="M238 329H288Q330 329 357.0 348.5Q384 368 384 406Q384 444 359.5 463.5Q335 483 282 483Q269 483 259.0 482.0Q249 481 238 479ZM306 196H65V549Q65 570 77.0 581.5Q89 593 108 600Q142 612 187.0 617.5Q232 623 283 623Q421 623 491.0 564.5Q561 506 561 408Q561 347 526.5 299.0Q492 251 434.5 223.5Q377 196 306 196ZM269 235 428 267Q450 237 473.0 208.0Q496 179 516.5 152.0Q537 125 554.0 102.0Q571 79 581 62Q571 28 544.5 9.0Q518 -10 485 -10Q442 -10 419.5 9.0Q397 28 378 59ZM65 264H240V1Q229 -2 206.0 -5.0Q183 -8 159 -8Q107 -8 86.0 10.5Q65 29 65 75Z" fill="#8D75F6"/>
<path transform="translate(2724,0)" d="M379 369V247H173V369ZM317 247 322 341Q410 341 468.0 322.0Q526 303 555.5 267.0Q585 231 585 178Q585 80 511.0 32.0Q437 -16 300 -16Q277 -16 245.0 -14.0Q213 -12 180.0 -6.5Q147 -1 120 9Q65 30 65 82V549Q65 570 77.0 581.5Q89 593 108 600Q142 612 193.5 617.5Q245 623 298 623Q425 623 494.5 579.5Q564 536 564 447Q564 397 533.5 363.5Q503 330 447.0 313.5Q391 297 314 297L308 369Q351 369 370.5 385.0Q390 401 390 432Q390 459 367.5 475.0Q345 491 300 491Q285 491 265.5 490.0Q246 489 235 487V125Q249 121 271.5 119.5Q294 118 313 118Q353 118 379.5 134.5Q406 151 406 186Q406 219 383.5 233.0Q361 247 317 247Z" fill="#DD82A9"/>

    <g filter="url(#bs)"><circle cx="1624" cy="350" r="380" fill="#6CB7CD"/></g>
  </g>
  <circle cx="1784" cy="490" r="380" fill="url(#sheen)"/>
</svg>